<svg id="Layer_2" data-name="Layer 2" xmlns="http://www.w3.org/2000/svg" viewBox="0 0 11.15 7.03"><defs><style>.cls-1{fill:#0e0d0c;}</style></defs><path class="cls-1" d="M12.09,12.34H7.42l0-.16a.66.66,0,0,0-.61-.42.65.65,0,0,0-.6.42l0,.16h-1a.71.71,0,0,1-.71-.71V7.2a.71.71,0,0,1,.71-.71h6.24a.71.71,0,0,1,.71.71Zm-4.35-.47h3.87V7.2A.23.23,0,0,0,11.38,7H5.14a.24.24,0,0,0-.24.24v4.43a.24.24,0,0,0,.24.24h.65a1.09,1.09,0,0,1,1-.58A1.1,1.1,0,0,1,7.74,11.87Z" transform="translate(-4.43 -6.49)"/><path class="cls-1" d="M14.85,12.34h-.6l-.06-.16a.64.64,0,0,0-1.2,0l-.06.16H11.64V12.1s0-1.08,0-2.14c0-.63,0-1.13,0-1.49V8c0-.23,0-.33.14-.4l.14-.06.05,0H13.9a.89.89,0,0,1,.74.39l.82,1.33a.77.77,0,0,1,.11.39v2A.68.68,0,0,1,14.85,12.34Zm-.28-.47h.28c.15,0,.25-.09.25-.17v-2a.28.28,0,0,0,0-.15l-.82-1.32a.4.4,0,0,0-.34-.16H12.11c0,.61,0,2.45,0,3.83h.51a1.11,1.11,0,0,1,1-.58A1.14,1.14,0,0,1,14.57,11.87Z" transform="translate(-4.43 -6.49)"/><path class="cls-1" d="M6.76,13.51A1.11,1.11,0,0,1,5.65,12.4,1,1,0,0,1,5.72,12a1.11,1.11,0,0,1,2.09,0,1.22,1.22,0,0,1,.07.38A1.12,1.12,0,0,1,6.76,13.51Zm0-1.75a.65.65,0,0,0-.6.42.85.85,0,0,0,0,.22.64.64,0,0,0,.64.64.64.64,0,0,0,.64-.64.83.83,0,0,0,0-.22A.66.66,0,0,0,6.76,11.76Z" transform="translate(-4.43 -6.49)"/><path class="cls-1" d="M13.59,13.51a1.11,1.11,0,0,1-1.11-1.11,1,1,0,0,1,.07-.38,1.1,1.1,0,0,1,1-.73,1.11,1.11,0,0,1,1.05.73,1.26,1.26,0,0,1,.06.38A1.11,1.11,0,0,1,13.59,13.51Zm0-1.75a.64.64,0,0,0-.6.42.57.57,0,0,0,0,.22.64.64,0,0,0,1.28,0,.57.57,0,0,0,0-.22A.64.64,0,0,0,13.59,11.76Z" transform="translate(-4.43 -6.49)"/><path class="cls-1" d="M8.42,2.22H9a.65.65,0,0,1,.65.65v.19a0,0,0,0,1,0,0H8.42a0,0,0,0,1,0,0V2.22A0,0,0,0,1,8.42,2.22Z"/></svg>