<svg id="Layer_1" data-name="Layer 1" xmlns="http://www.w3.org/2000/svg" viewBox="0 0 8.18 6.99"><defs><style>.cls-1{fill:#0e0d0c;}</style></defs><path class="cls-1" d="M5.69,6.9h1L6.5,6.75l1,4.12.15.59a.2.2,0,0,0,.19.14h4.78a.2.2,0,0,0,.19-.14l.72-3.06L13.68,8a.2.2,0,0,0-.19-.25H7.06a.2.2,0,0,0,0,.39h6.43l-.19-.25-.73,3.06-.1.43.19-.14H7.88l.19.14L7,7.24l-.15-.59a.21.21,0,0,0-.19-.15h-1a.2.2,0,0,0,0,.4Z" transform="translate(-5.5 -6.5)"/><path class="cls-1" d="M8.33,13.5a.78.78,0,0,1-.78-.78.78.78,0,1,1,.78.78Zm0-1.16a.38.38,0,1,0,.38.38A.38.38,0,0,0,8.33,12.34Z" transform="translate(-5.5 -6.5)"/><path class="cls-1" d="M11.9,13.5a.78.78,0,0,1-.77-.78.78.78,0,0,1,1.55,0A.78.78,0,0,1,11.9,13.5Zm0-1.16a.38.38,0,1,0,.38.38A.38.38,0,0,0,11.9,12.34Z" transform="translate(-5.5 -6.5)"/></svg>